# xmcd CD database file
#
# Track frame offsets:
#	150
#	4277
#	21435
#	49430
#	84865
#	108650
#	114492
#	140990
#	167465
#	202102
#	255925
#
# Disc length: 3645 seconds
#
# Revision: 0
# Processed by: cddbd v1.5.2PL0 Copyright (c) Steve Scherf et al.
# Submitted via: CDex 1.70beta2
#
DISCID=970e3b0b
DTITLE=J&B - J&B
DYEAR=2001
DGENRE=Jazz
TTITLE0=Machu Picchu
TTITLE1=Opening
TTITLE2=Just for Fun
TTITLE3=kahan-shu
TTITLE4=fuan
TTITLE5=time flies groove
TTITLE6=Sleep Walk
TTITLE7=Satsuki-bare
TTITLE8=Insomnia
TTITLE9=Song for J&B
TTITLE10=Pollen Shower
EXTD=YEAR: 2001
EXTT0=
EXTT1=
EXTT2=
EXTT3=
EXTT4=
EXTT5=
EXTT6=
EXTT7=
EXTT8=
EXTT9=
EXTT10=
PLAYORDER=
